<svg width="50" height="50" viewBox="0 0 50 50" fill="none" xmlns="http://www.w3.org/2000/svg">
<g clip-path="url(#clip0_20_70)">
<path fill-rule="evenodd" clip-rule="evenodd" d="M25.0005 1.04169C19.0656 1.04477 13.3253 3.14681 8.80597 6.97194C4.28667 10.7971 1.28312 16.0959 0.332374 21.9208C-0.618373 27.7458 0.54567 33.7171 3.61639 38.7671C6.6871 43.817 11.4642 47.6162 17.0936 49.4854C18.3355 49.7159 18.8033 48.9462 18.8033 48.2917C18.8033 47.6372 18.7785 45.7396 18.7702 43.6651C11.8154 45.1675 10.3458 40.7302 10.3458 40.7302C9.2115 37.8489 7.57215 37.0915 7.57215 37.0915C5.30356 35.552 7.74189 35.5808 7.74189 35.5808C10.2547 35.7578 11.5753 38.1452 11.5753 38.1452C13.8025 41.9445 17.4248 40.8455 18.8488 40.2033C19.0724 38.5939 19.7223 37.499 20.4385 36.8774C14.883 36.2518 9.0459 34.1196 9.0459 24.5946C9.01147 22.1244 9.93337 19.7355 11.6208 17.9223C11.3642 17.2966 10.5072 14.7693 11.8651 11.3363C11.8651 11.3363 13.964 10.6695 18.7412 13.8843C22.8389 12.7701 27.1622 12.7701 31.2599 13.8843C36.033 10.6695 38.1277 11.3363 38.1277 11.3363C39.4897 14.761 38.6328 17.2884 38.3761 17.9223C40.0689 19.7358 40.9927 22.1289 40.9552 24.6029C40.9552 34.1484 35.1057 36.2518 29.5418 36.8651C30.436 37.6389 31.235 39.1496 31.235 41.4711C31.235 44.797 31.206 47.4725 31.206 48.2917C31.206 48.9544 31.6573 49.7282 32.924 49.4854C38.554 47.616 43.3316 43.8161 46.4023 38.7653C49.473 33.7145 50.6364 27.7423 49.6846 21.9168C48.7327 16.0913 45.7277 10.7924 41.2069 6.96795C36.6861 3.14347 30.9445 1.04281 25.0088 1.04169H25.0005Z" fill="white"/>
<path d="M9.46763 36.7333C9.41381 36.8568 9.2151 36.8938 9.05365 36.8074C8.8922 36.721 8.77216 36.5604 8.83011 36.4328C8.88807 36.3052 9.08264 36.2723 9.24409 36.3587C9.40554 36.4452 9.52972 36.6098 9.46763 36.7333Z" fill="white"/>
<path d="M10.4819 37.8571C10.3962 37.9 10.2981 37.912 10.2044 37.891C10.1108 37.87 10.0274 37.8172 9.96856 37.7418C9.80711 37.5689 9.77398 37.3302 9.89817 37.2232C10.0224 37.1162 10.2459 37.1656 10.4074 37.3384C10.5688 37.5113 10.6061 37.7501 10.4819 37.8571Z" fill="white"/>
<path d="M11.4672 39.2854C11.314 39.3924 11.0532 39.2854 10.9083 39.0713C10.8682 39.0329 10.8364 38.9869 10.8146 38.936C10.7928 38.885 10.7816 38.8303 10.7816 38.775C10.7816 38.7196 10.7928 38.6649 10.8146 38.6139C10.8364 38.563 10.8682 38.517 10.9083 38.4786C11.0615 38.3757 11.3223 38.4786 11.4672 38.6885C11.6121 38.8984 11.6162 39.1783 11.4672 39.2854Z" fill="white"/>
<path d="M12.8043 40.6684C12.6677 40.8207 12.3904 40.7796 12.1627 40.5738C11.935 40.3679 11.8812 40.088 12.0178 39.9399C12.1544 39.7917 12.4317 39.8328 12.6677 40.0345C12.9037 40.2362 12.9492 40.5202 12.8043 40.6684Z" fill="white"/>
<path d="M14.6796 41.4752C14.6175 41.6687 14.336 41.7551 14.0545 41.6728C13.773 41.5904 13.5867 41.3599 13.6405 41.1624C13.6943 40.9648 13.98 40.8742 14.2656 40.9648C14.5512 41.0553 14.7334 41.2735 14.6796 41.4752Z" fill="white"/>
<path d="M16.7247 41.6151C16.7247 41.8168 16.4928 41.9897 16.1948 41.9938C15.8967 41.9979 15.6525 41.8333 15.6525 41.6316C15.6525 41.4299 15.8843 41.257 16.1823 41.2529C16.4804 41.2488 16.7247 41.4093 16.7247 41.6151Z" fill="white"/>
<path d="M18.6289 41.2982C18.6662 41.4999 18.4592 41.7098 18.1611 41.7592C17.8631 41.8086 17.6022 41.6892 17.565 41.4917C17.5277 41.2941 17.743 41.08 18.0328 41.0265C18.3226 40.973 18.5916 41.0965 18.6289 41.2982Z" fill="white"/>
</g>
<defs>
<clipPath id="clip0_20_70">
<rect width="50" height="50" fill="white"/>
</clipPath>
</defs>
</svg>
